<?xml version="1.0" standalone="no"?>
<!DOCTYPE svg PUBLIC "-//W3C//DTD SVG 20010904//EN"
 "http://www.w3.org/TR/2001/REC-SVG-20010904/DTD/svg10.dtd">
<svg version="1.0" xmlns="http://www.w3.org/2000/svg"
 width="316.000000pt" height="245.000000pt" viewBox="0 0 316.000000 245.000000"
 preserveAspectRatio="xMidYMid meet">

<g transform="translate(0.000000,245.000000) scale(0.100000,-0.100000)"
fill="#000000" stroke="none">
<path d="M0 2046 l0 -404 30 -32 c16 -18 30 -38 30 -46 0 -8 7 -14 15 -14 9 0
18 -7 21 -15 4 -8 14 -15 24 -15 15 0 50 -29 50 -42 0 -7 -68 -23 -88 -21 -9
1 -8 -5 4 -18 9 -10 28 -19 40 -19 27 0 23 -21 -8 -52 -18 -18 -19 -18 -42 7
-23 25 -23 25 -41 5 -16 -18 -16 -20 -1 -26 9 -4 19 -4 23 -1 7 7 73 -62 73
-77 0 -18 -54 -57 -72 -53 -20 6 -25 -18 -6 -27 9 -3 3 -13 -16 -29 -27 -23
-28 -28 -22 -75 4 -31 3 -53 -4 -57 -5 -3 -10 -38 -10 -76 0 -39 4 -68 9 -65
5 3 7 24 4 46 -3 21 -3 46 0 54 8 21 35 9 39 -17 4 -28 22 -24 26 5 3 21 9 23
72 26 69 3 94 -8 71 -31 -6 -6 -11 -22 -11 -35 0 -20 -4 -24 -24 -20 -18 4
-26 0 -29 -14 -5 -19 -47 -26 -47 -8 0 18 -18 10 -23 -10 -3 -14 -17 -21 -46
-26 -34 -5 -41 -10 -41 -30 0 -14 8 -25 20 -29 11 -3 20 -10 20 -14 0 -14 65
-77 92 -89 28 -11 68 -77 68 -109 0 -10 -5 -25 -10 -33 -9 -13 -12 -13 -21 3
-15 26 -32 21 -26 -9 4 -20 0 -28 -15 -32 -10 -2 -18 -12 -16 -20 4 -22 28
-27 28 -5 0 14 2 15 9 5 6 -10 10 -8 14 8 6 25 25 23 41 -4 8 -14 8 -20 -2
-23 -6 -3 -12 -13 -12 -23 0 -10 -9 -28 -19 -41 -18 -22 -20 -22 -26 -6 -10
23 -30 22 -60 -5 -18 -16 -24 -29 -21 -44 5 -17 0 -23 -27 -30 l-32 -10 -3
-162 -2 -162 468 0 468 0 12 118 c7 72 8 134 3 161 -5 25 -5 54 -1 65 5 12 13
47 20 79 6 31 14 57 18 57 4 -1 21 -13 38 -28 40 -35 190 -160 231 -192 120
-95 175 -144 164 -148 -6 -2 -18 1 -26 8 -11 9 -26 5 -72 -19 -32 -17 -76 -47
-98 -66 l-40 -34 264 -1 265 0 -35 37 c-37 39 -25 36 32 -9 32 -25 45 -28 107
-28 47 0 73 4 81 14 6 7 26 58 44 112 35 104 81 189 97 179 13 -8 13 -115 0
-191 -6 -32 -12 -71 -15 -86 l-4 -28 569 0 570 0 0 1225 0 1225 -200 0 -200 0
0 -22 c0 -129 -23 -638 -31 -653 -5 -11 -10 -54 -11 -95 l-3 -75 -175 0 -175
0 -6 47 c-12 81 -39 160 -87 251 -25 48 -49 87 -53 87 -4 0 -10 7 -13 16 -4
12 -2 15 9 10 8 -3 15 -2 15 3 0 4 -36 23 -81 42 -44 19 -97 48 -116 64 l-36
31 119 3 c78 1 121 6 126 14 4 7 8 72 8 144 l0 133 -740 0 -740 0 -2 -110 c-1
-61 -2 -118 -2 -127 -1 -16 13 -19 119 -23 71 -3 120 -9 119 -15 0 -5 -34 -33
-74 -62 -91 -64 -169 -141 -195 -190 -11 -21 -29 -54 -42 -74 -12 -20 -29 -61
-38 -91 -8 -30 -24 -72 -35 -93 l-19 -38 -161 2 c-89 1 -168 5 -176 8 -10 4
-14 24 -14 73 0 38 -5 72 -10 75 -6 4 -8 10 -6 14 3 3 7 152 10 329 l6 322
-125 0 -125 0 0 -404z m1375 384 c3 -5 -3 -10 -14 -10 -12 0 -21 5 -21 10 0 6
6 10 14 10 8 0 18 -4 21 -10z m65 1 c0 -5 -7 -11 -15 -15 -15 -5 -20 5 -8 17
9 10 23 9 23 -2z m-260 -10 c0 -5 9 -13 20 -16 22 -7 27 -33 8 -40 -38 -11
-108 -15 -108 -6 0 6 16 11 35 11 34 0 49 20 25 35 -15 9 -12 25 5 25 8 0 15
-4 15 -9z m230 -970 c0 -11 -9 -23 -20 -26 -33 -10 -79 -58 -82 -85 -2 -15 2
-24 8 -23 7 1 10 -6 7 -17 -4 -14 0 -20 11 -20 9 0 16 -4 16 -10 0 -5 6 -7 14
-4 32 12 60 -77 32 -98 -6 -4 3 -10 20 -13 16 -4 41 -11 57 -17 15 -6 38 -10
52 -10 14 0 25 -4 25 -8 0 -10 -67 -50 -84 -50 -19 0 -67 -26 -76 -41 -4 -6
-4 -25 1 -42 6 -21 2 -51 -12 -106 -24 -86 -34 -102 -56 -94 -19 7 -34 -16
-27 -39 3 -10 1 -18 -5 -18 -6 0 -11 9 -11 20 0 14 -6 20 -17 18 -10 -2 -17 3
-15 10 9 47 4 61 -18 55 -12 -3 -20 0 -20 7 0 7 -5 6 -15 -4 -8 -8 -15 -22
-15 -30 0 -9 -7 -16 -15 -16 -8 0 -15 -5 -15 -11 0 -6 -9 -9 -20 -6 -22 6 -31
-11 -17 -34 12 -19 0 -112 -14 -104 -5 4 -9 21 -9 38 0 24 -6 35 -22 42 -18 8
-24 20 -26 55 -2 31 1 48 12 55 19 14 20 57 11 248 -7 131 -6 154 11 207 10
33 23 60 27 60 4 0 18 11 30 24 12 13 42 29 67 36 25 6 52 18 60 25 13 12 103
40 138 44 6 0 12 -8 12 -18z m-1224 -14 c10 4 14 -4 14 -30 0 -20 -4 -38 -9
-41 -11 -7 -41 65 -33 79 3 5 7 4 9 -2 3 -7 11 -9 19 -6z m1169 -96 c-3 -6
-11 -11 -17 -11 -6 0 -6 6 2 15 14 17 26 13 15 -4z m416 9 c5 0 9 -7 9 -15 0
-9 8 -19 17 -22 28 -11 53 -36 52 -53 0 -10 -2 -11 -6 -2 -2 6 -8 12 -13 12
-15 0 -19 -29 -9 -62 15 -48 21 -176 9 -183 -6 -4 -18 -1 -26 6 -11 9 -12 14
-3 19 8 6 8 9 0 14 -6 4 -11 2 -11 -3 0 -7 -22 -11 -53 -11 -41 0 -58 -5 -72
-20 -25 -27 -45 -25 -45 5 0 43 21 75 49 75 14 0 32 4 40 9 18 12 3 34 -19 28
-11 -3 -21 1 -24 9 -5 13 -10 12 -36 -1 -16 -8 -30 -12 -30 -9 0 4 12 32 27
63 35 73 101 154 120 147 8 -4 19 -6 24 -6z m-341 -39 c0 -27 -2 -29 -27 -22
-35 9 -41 29 -11 40 35 15 38 13 38 -18z m-1220 4 c10 -12 9 -16 -4 -21 -9 -3
-16 -14 -16 -24 0 -10 -6 -23 -14 -29 -12 -10 -17 -8 -25 8 -9 16 -7 21 9 26
11 4 20 12 19 18 -5 38 9 48 31 22z m2822 -92 c-8 -41 -23 -24 -18 20 7 63 8
64 15 32 4 -16 5 -40 3 -52z m-1144 -22 c3 -16 -1 -22 -10 -19 -7 3 -15 15
-16 27 -3 16 1 22 10 19 7 -3 15 -15 16 -27z m-1738 -52 c0 -22 -5 -29 -20
-29 -15 0 -20 7 -20 28 0 21 5 28 20 29 16 1 20 -4 20 -28z m2670 -149 c0 -25
-4 -30 -25 -30 -14 0 -25 3 -25 8 0 4 -3 17 -6 30 -6 19 -3 22 25 22 28 0 31
-3 31 -30z m77 18 c7 -6 20 -5 33 2 29 16 50 6 50 -24 0 -24 -2 -25 -70 -24
-69 2 -70 2 -70 29 0 22 4 28 23 27 12 -1 27 -6 34 -10z m228 -47 c-10 -27
-28 5 -20 36 l7 28 9 -24 c6 -14 7 -31 4 -40z m-65 18 c0 -17 -4 -28 -10 -24
-5 3 -10 17 -10 31 0 13 5 24 10 24 6 0 10 -14 10 -31z m-2154 -204 c10 8 22
15 27 15 13 0 7 -37 -9 -51 -13 -10 -20 -10 -42 3 -15 9 -29 25 -31 35 -3 17
-2 17 16 1 17 -16 22 -16 39 -3z m844 -5 c0 -5 -4 -10 -10 -10 -5 0 -10 5 -10
10 0 6 5 10 10 10 6 0 10 -4 10 -10z m-520 -65 c0 -8 -4 -15 -10 -15 -5 0 -7
7 -4 15 4 8 8 15 10 15 2 0 4 -7 4 -15z m-39 -88 c-13 -13 -26 -3 -16 12 3 6
11 8 17 5 6 -4 6 -10 -1 -17z m-121 -118 c0 -41 -25 -43 -54 -4 -28 36 -36
100 -14 107 17 6 68 -71 68 -103z m77 69 c-3 -8 -6 -5 -6 6 -1 11 2 17 5 13 3
-3 4 -12 1 -19z m-40 -110 c-3 -8 -6 -5 -6 6 -1 11 2 17 5 13 3 -3 4 -12 1
-19z m-965 -74 c11 -22 10 -28 -7 -40 -22 -16 -55 -19 -55 -4 0 6 8 14 18 17
24 9 33 25 20 40 -7 9 -7 13 1 13 6 0 17 -12 23 -26z m1164 -125 c19 -21 19
-21 -9 -8 -15 7 -27 16 -27 21 0 14 16 9 36 -13z"/>
<path d="M1210 1285 c-10 -12 -10 -18 0 -30 16 -19 30 -10 30 21 0 27 -12 31
-30 9z"/>
<path d="M2055 2130 c3 -5 11 -10 16 -10 6 0 7 5 4 10 -3 6 -11 10 -16 10 -6
0 -7 -4 -4 -10z"/>
<path d="M2260 1955 c0 -5 9 -21 20 -35 11 -14 20 -20 20 -15 0 6 -9 21 -20
35 -11 14 -20 21 -20 15z"/>
<path d="M7 1495 c-4 -8 -2 -17 3 -20 6 -4 10 -4 10 -1 0 2 3 11 6 20 3 9 2
16 -4 16 -5 0 -12 -7 -15 -15z"/>
<path d="M1 1424 c0 -11 3 -14 6 -6 3 7 2 16 -1 19 -3 4 -6 -2 -5 -13z"/>
<path d="M50 909 c0 -5 5 -7 10 -4 6 3 10 8 10 11 0 2 -4 4 -10 4 -5 0 -10 -5
-10 -11z"/>
<path d="M11 674 c0 -11 3 -14 6 -6 3 7 2 16 -1 19 -3 4 -6 -2 -5 -13z"/>
<path d="M123 648 c-25 -12 -31 -38 -9 -38 7 0 16 9 19 21 4 13 10 18 18 13 8
-4 10 -3 5 4 -4 7 -8 12 -9 11 -1 0 -12 -5 -24 -11z"/>
<path d="M35 560 c-3 -5 1 -10 9 -10 9 0 16 5 16 10 0 6 -4 10 -9 10 -6 0 -13
-4 -16 -10z"/>
</g>
</svg>
